HIERARCHY
ROOT Hips
{
	OFFSET 4.795533 105.005997 -1.411832
	CHANNELS 6 Xposition Yposition Zposition Xrotation Yrotation Zrotation
	JOINT Chest
	{
		OFFSET -0.434321 13.600609 0.994515
		CHANNELS 3 Xrotation Yrotation Zrotation
		JOINT Chest2
		{
			OFFSET -3.788135 20.538551 4.783776
			CHANNELS 3 Xrotation Yrotation Zrotation
			JOINT Chest3
			{
				OFFSET -2.441397 14.717316 0.509980
				CHANNELS 3 Xrotation Yrotation Zrotation
				JOINT Neck
				{
					OFFSET -1.916309 16.971603 2.628437
					CHANNELS 3 Xrotation Yrotation Zrotation
					JOINT Head
					{
						OFFSET -3.532334 9.323608 3.228100
						CHANNELS 3 Xrotation Yrotation Zrotation
						End Site
						{
							OFFSET -3.517739 9.351669 3.162191
						}
					}
				}
				JOINT LeftCollar
				{
					OFFSET 2.909407 13.110748 4.631203
					CHANNELS 3 Xrotation Yrotation Zrotation
					JOINT LeftUpArm
					{
						OFFSET 14.665126 4.786331 -8.397892
						CHANNELS 3 Xrotation Yrotation Zrotation
						JOINT LeftLowArm
						{
							OFFSET 33.406845 4.116272 -2.601457
							CHANNELS 3 Xrotation Yrotation Zrotation
							JOINT LeftHand
							{
								OFFSET 28.966587 0.643463 7.840278
								CHANNELS 3 Xrotation Yrotation Zrotation
								End Site
								{
									OFFSET 6.330818 0.140640 1.713541
								}
							}
						}
					}
				}
				JOINT RightCollar
				{
					OFFSET -5.433147 12.097305 5.093598
					CHANNELS 3 Xrotation Yrotation Zrotation
					JOINT RightUpArm
					{
						OFFSET -16.553045 1.233154 -5.742139
						CHANNELS 3 Xrotation Yrotation Zrotation
						JOINT RightLowArm
						{
							OFFSET -31.966669 4.312637 9.963276
							CHANNELS 3 Xrotation Yrotation Zrotation
							JOINT RightHand
							{
								OFFSET -27.366653 0.977966 12.290800
								CHANNELS 3 Xrotation Yrotation Zrotation
								End Site
								{
									OFFSET -5.981255 0.213715 2.686281
								}
							}
						}
					}
				}
			}
		}
	}
	JOINT LeftUpLeg
	{
		OFFSET 10.015744 0.314369 0.072033
		CHANNELS 3 Xrotation Yrotation Zrotation
		JOINT LeftLowLeg
		{
			OFFSET 0.515252 -47.354218 -1.141616
			CHANNELS 3 Xrotation Yrotation Zrotation
			JOINT LeftFoot
			{
				OFFSET -4.985134 -42.539532 -12.888205
				CHANNELS 3 Xrotation Yrotation Zrotation
				JOINT LeftToe
				{
					OFFSET 1.196435 -16.882713 16.525812
					CHANNELS 3 Xrotation Yrotation Zrotation
					End Site
					{
						OFFSET 4.356194 -2.700471 23.093071
					}
				}
			}
		}
	}
	JOINT RightUpLeg
	{
		OFFSET -10.015741 -0.314568 -0.072048
		CHANNELS 3 Xrotation Yrotation Zrotation
		JOINT RightLowLeg
		{
			OFFSET -2.952129 -42.159309 21.398365
			CHANNELS 3 Xrotation Yrotation Zrotation
			JOINT RightFoot
			{
				OFFSET 29.591030 -27.629112 -19.015333
				CHANNELS 3 Xrotation Yrotation Zrotation
				JOINT RightToe
				{
					OFFSET 3.859987 -23.118984 3.189081
					CHANNELS 3 Xrotation Yrotation Zrotation
					End Site
					{
						OFFSET 0.312895 -16.286329 17.152657
					}
				}
			}
		}
	}
}
MOTION
Frames: 11
Frame Time: 0.033333
7.737255 99.598145 -5.656861 10.584533 -5.419350 20.578670 -7.181729 -0.518680 2.309543 -3.669201 5.891724 -8.410579 1.561541 5.004159 0.589916 -0.036561 6.536644 -4.935068 -0.000004 0.000000 0.000002 -7.228166 3.637702 13.770901 -0.719783 -2.523928 25.196389 -10.027373 10.155823 12.463893 0.000000 0.000000 -0.000003 -8.320749 0.077594 -30.801623 -7.912297 6.036911 -33.155275 -3.564173 38.085702 -99.773853 0.000000 -0.000003 0.000000 -16.996099 3.645223 -22.925976 8.288469 -2.406853 -2.149236 1.980685 11.278511 5.106199 -0.000000 0.000001 0.000001 -4.253337 -3.578616 -18.466924 4.169913 9.745745 62.295451 7.911756 10.948056 -11.092562 0.000002 0.000001 -0.000002 
7.781361 99.469368 -5.753024 11.018694 -5.810157 20.614687 -7.103430 -0.513529 2.323352 -3.802359 5.982327 -8.520480 1.663198 5.320315 0.861094 -1.133814 6.456786 -4.879217 -0.000000 -0.000002 0.000005 -7.357352 3.759027 13.598856 -0.562529 -2.766097 25.165800 -9.984851 9.857008 12.490025 -0.000000 -0.000002 0.000001 -8.399783 -0.105512 -30.516186 -7.911645 6.114083 -33.240728 -1.505355 39.118785 -100.310460 0.000002 -0.000003 0.000001 -17.514096 3.686731 -22.782024 8.530192 -2.470063 -2.331982 2.026815 11.618895 5.271697 -0.000000 0.000001 -0.000001 -4.873719 -3.379787 -18.276019 5.021847 11.169083 61.350945 7.792329 10.638145 -10.870227 0.000003 0.000003 0.000001 
7.812621 99.343559 -5.853131 11.487630 -5.281373 20.445306 -8.046911 -0.658912 2.543477 -2.896383 5.974543 -8.479470 0.982793 4.906026 0.662099 -0.715558 6.556560 -4.683136 -0.000000 -0.000002 0.000001 -7.335300 3.843864 13.439284 -0.520536 -2.584027 25.523386 -10.028234 9.833206 12.949256 -0.000000 -0.000004 0.000001 -8.318324 -0.125927 -30.304412 -8.089123 5.637853 -33.457432 -2.078991 38.864456 -100.931351 0.000000 -0.000003 0.000000 -18.293436 3.740096 -22.590277 9.424284 -2.667516 -2.401762 1.565340 11.410756 5.580751 -0.000000 -0.000000 -0.000000 -4.755690 -3.380340 -18.297703 4.829970 10.948807 61.354046 7.909280 11.087379 -10.819075 0.000003 0.000002 -0.000001 
7.837415 99.225677 -5.946987 10.830345 -5.520217 20.454786 -6.917272 -0.522315 2.465078 -3.861641 5.877814 -8.432141 1.786479 5.082405 0.702598 -1.656319 6.293635 -4.786000 -0.000002 -0.000003 0.000003 -7.276684 3.529463 13.225929 -0.719565 -2.512808 25.584449 -9.998438 9.111774 12.983046 0.000001 -0.000003 0.000001 -8.613756 -0.311434 -30.354672 -8.220386 5.826197 -33.439790 -2.243809 38.810129 -100.950128 0.000001 -0.000003 -0.000001 -17.785398 3.720760 -22.684098 9.464810 -2.623369 -2.323265 1.388821 11.106294 5.624250 0.000001 -0.000001 -0.000000 -4.080218 -3.545595 -18.073596 4.958392 11.010209 61.050737 8.169393 11.751278 -11.216459 -0.000000 0.000000 0.000002 
7.860042 99.122322 -6.035518 11.037044 -5.212372 20.553743 -7.262918 -0.559926 2.334696 -3.445754 5.974595 -8.507713 1.350800 5.059491 0.794832 -0.836667 6.413461 -4.759832 -0.000003 -0.000002 0.000003 -6.986378 3.643727 12.919727 -0.572667 -2.195799 25.757089 -9.969875 9.669165 13.535311 0.000001 -0.000004 -0.000001 -8.391797 -0.323536 -30.337136 -8.360042 4.743109 -33.923777 -3.360617 38.150151 -101.204060 -0.000002 -0.000003 -0.000000 -17.713764 3.690547 -22.753187 9.097745 -2.538027 -2.392434 1.471915 11.107986 5.614776 0.000001 -0.000001 0.000001 -4.368447 -3.475133 -18.066301 4.706968 10.498313 61.304745 7.980936 11.980811 -10.998675 0.000003 0.000000 -0.000002 
7.874097 99.030685 -6.125694 11.326797 -5.208616 20.701610 -7.452529 -0.613414 2.333901 -2.830377 6.075739 -8.586968 0.870465 4.960005 0.657079 -0.666214 6.488928 -4.699943 -0.000002 -0.000000 0.000006 -6.699851 3.699777 12.797403 -0.378851 -1.801558 25.620595 -9.747482 9.848219 14.239417 -0.000002 -0.000002 0.000002 -8.654476 -1.165693 -30.404126 -8.153876 4.179032 -34.067628 -5.912513 36.594402 -101.419983 0.000001 -0.000002 0.000002 -17.874006 3.716289 -22.802069 8.535188 -2.488035 -2.468166 1.633410 11.264407 5.539946 0.000001 0.000001 -0.000000 -5.060856 -3.283327 -18.024722 4.874020 10.768866 61.015542 8.057533 12.086182 -11.110780 0.000002 0.000004 0.000002 
7.887872 98.946480 -6.215214 11.574516 -5.513169 20.773593 -7.136159 -0.562953 2.260519 -3.414680 6.021590 -8.545080 1.079618 5.334461 0.713063 -0.338619 6.544554 -4.759077 -0.000001 -0.000000 0.000003 -6.627283 3.508336 12.795909 -0.748494 -1.382707 25.558826 -9.738277 8.841758 14.304218 -0.000002 -0.000001 0.000002 -8.382641 -0.638891 -30.261293 -8.408087 3.874186 -34.144232 -5.006811 37.173660 -101.708873 -0.000001 -0.000001 -0.000000 -18.150645 3.774714 -22.872685 8.569648 -2.452333 -2.299781 2.053696 11.347948 5.182742 -0.000000 -0.000000 -0.000000 -4.796116 -3.335098 -17.873814 4.962596 10.806208 60.858044 8.164151 11.987012 -11.339468 0.000003 0.000003 0.000003 
7.910875 98.869255 -6.302708 11.860422 -5.689210 20.914159 -7.061395 -0.573350 2.402897 -3.062310 6.092547 -8.681097 0.907421 5.174061 0.665914 -0.325270 6.655496 -5.129973 0.000001 -0.000002 0.000001 -7.223821 4.102993 12.804501 -1.179544 -0.967697 25.368047 -9.907503 8.776170 14.496788 -0.000000 -0.000002 -0.000001 -8.636246 -0.877623 -30.282023 -8.701297 3.673525 -34.119858 -7.148649 36.079180 -101.490600 0.000000 -0.000002 0.000001 -18.393039 3.852014 -22.879180 8.777777 -2.376274 -2.498563 2.068231 11.465804 5.255441 0.000001 0.000001 0.000001 -5.109119 -3.316056 -17.952001 5.812012 11.995146 60.011347 7.835193 12.309257 -10.889021 0.000003 0.000001 0.000004 
7.938142 98.792473 -6.382674 12.249266 -6.003310 21.154206 -6.706796 -0.522524 2.353742 -3.167332 6.201843 -8.790450 0.892859 5.829216 0.822843 -0.678750 6.303119 -4.994557 -0.000000 -0.000002 0.000003 -7.154227 4.141271 12.244421 -1.478320 0.412266 25.498952 -9.516561 8.585790 14.630528 -0.000000 -0.000003 0.000001 -8.860818 -1.535300 -29.990903 -8.489861 3.586510 -34.641118 -8.309802 35.295761 -102.324348 0.000001 -0.000003 -0.000000 -19.472572 4.093208 -23.115256 9.657392 -2.511846 -2.315524 2.109603 11.542437 5.242671 -0.000001 0.000001 -0.000001 -5.177898 -3.316268 -17.999910 6.328089 12.700446 59.536833 8.072210 11.951740 -11.530834 0.000003 0.000003 0.000002 
7.966599 98.720398 -6.468478 12.555948 -6.790238 21.371454 -6.300966 -0.486766 2.338263 -3.321389 6.224118 -8.832320 0.695220 5.957092 0.860354 -0.897917 6.621509 -5.187549 -0.000003 0.000000 0.000000 -7.335928 4.421726 12.371997 -1.450262 0.689271 25.483852 -9.580069 9.458187 14.742362 0.000000 0.000001 -0.000001 -8.906573 -1.652301 -30.081014 -8.382493 3.429805 -34.600707 -7.816547 35.413930 -102.602808 -0.000000 -0.000001 -0.000002 -19.975715 4.183834 -23.081962 9.316044 -2.366985 -2.526293 2.708724 12.312154 5.094970 -0.000001 -0.000001 -0.000000 -4.594458 -3.449237 -17.952659 6.950170 13.521695 58.741328 8.770740 11.751077 -12.706669 0.000001 -0.000001 0.000002 
7.993638 98.652046 -6.550022 13.041150 -6.914091 21.623190 -6.088589 -0.486430 2.460177 -3.435268 6.340014 -8.954748 1.169062 5.631597 0.665764 -2.618115 6.870833 -5.087921 0.000000 -0.000000 -0.000000 -7.717774 4.780441 12.116955 -1.348173 0.322527 25.654045 -9.769062 9.359091 15.035634 -0.000001 -0.000003 0.000001 -8.962004 -1.698964 -29.903907 -8.528038 3.545795 -34.484686 -7.760398 35.474872 -102.903193 0.000001 -0.000003 0.000002 -20.697220 4.321312 -23.135960 9.539369 -2.543250 -2.766643 2.490348 12.650120 5.437777 0.000001 0.000001 0.000000 -5.139623 -3.361461 -18.133230 5.965499 12.460721 59.957368 8.873622 11.238380 -12.556077 -0.000002 0.000002 0.000002 
